<?xml version="1.0" encoding="UTF-8" standalone="no"?>
<!-- Created with Inkscape (http://www.inkscape.org/) -->

<svg
   version="1.1"
   id="svg1"
   width="1109.3333"
   height="1664"
   viewBox="0 0 1109.3333 1664"
   xmlns="http://www.w3.org/2000/svg"
   xmlns:svg="http://www.w3.org/2000/svg">
  <defs
     id="defs1" />
  <g
     id="g1">
    <g
       id="g60">
      <g
         id="g14"
         transform="matrix(0.92100574,0,0,0.92100574,970.65456,37.023412)">
        <path
           style="fill:#3e5528;fill-opacity:1"
           d="m -802.33391,1152.3814 c 3.4568,-1.85 3.3138,-3.2326 -1.9671,-19.0248 -10.0113,-29.9385 -15.3924,-65.98 -16.3628,-109.5949 -0.8174,-36.74215 0.8009,-56.51925 7.0706,-86.40825 8.058,-38.4142 27.6818,-86.8268 50.8369,-125.4162 l 8.6952,-14.49126 12.1531,0.8789 c 46.7064,3.37756 84.4354,12.21126 131.7359,30.84406 13.7038,5.3983 30.4297,12.5842 37.1686,15.9686 6.7389,3.3845 12.7015,5.6595 13.2501,5.0556 0.5487,-0.604 2.598,-6.7981 4.5539,-13.7648 6.4742,-23.0591 11.4668,-30.9956 28.5067,-45.31576 4.9139,-4.1296 8.2286,-7.9212 7.9933,-9.1431 -0.2428,-1.2605 -5.4181,-4.0368 -13.062,-7.007 -15.9534,-6.1989 -31.7496,-13.0345 -42.0217,-18.1841 -12.0781,-6.0551 -43.8015,-18.4996 -57.305,-22.4796 -34.7702,-10.2483 -54.8088,-14.5446 -63.3333,-15.2208 -10.7728,-0.8545 -14.6243,-3.5714 -8.8959,-8.2864 2.2106,-1.8195 4.4679,-1.8435 16.8655,-0.2132 7.6833,1.0104 16.6833,2.7012 20,3.7574 3.3167,1.0562 9.5256,2.6111 13.7977,3.4553 4.272,0.8442 13.272,3.3062 20,5.4712 16.2429,5.2268 33.6525,6.4188 47.5914,3.2585 19.2564,-4.366 52.7545,-14.0744 63.9746,-18.541 16.7239,-6.6577 52.3018,-24.4959 57.4823,-28.8208 l 4.5008,-3.7574 -9.9915,-2.879 c -13.8524,-3.9913 -41.1793,-13.2307 -63.0227,-21.3082 -32.2457,-11.9243 -76.6417,-21.4526 -99.9559,-21.4526 -10.7259,0 -21.013,-1.3489 -21.013,-2.7554 0,-0.5828 1.2308,-3.0513 2.735,-5.4855 1.5043,-2.4342 9.3732,-15.5258 17.4864,-29.0924 8.1133,-13.5667 19.0892,-31.8667 24.391,-40.6667 23.7591,-39.4356 31.3876,-52.7191 31.3876,-54.6548 0,-1.8239 -4.8456,-4.6785 -7.9416,-4.6785 -0.6057,0 -3.9417,2.3471 -7.4133,5.2158 -5.9567,4.9224 -12.7859,8.191 -20.8707,9.9893 -2.9763,0.662 -5.5744,4.4478 -15.8709,23.1266 -6.7715,12.2842 -17.4701,30.5515 -23.7744,40.594 -6.3043,10.0426 -17.5568,28.6426 -25.0056,41.3334 -21.2392,36.1864 -33.768,57.6038 -45.0869,77.0742 -5.7553,9.9 -13.7636,23.4 -17.7962,30 -4.0326,6.6 -10.1329,16.8 -13.5562,22.6667 -3.4233,5.8666 -9.6942,16.3078 -13.9353,23.2025 -14.3727,23.3655 -35.1989,61.89366 -44.3953,82.13076 -14.6535,32.246 -25.0298,66.5885 -31.8401,105.3819 -6.3968,36.4373 -5.995,94.31365 0.9297,133.95135 4.3169,24.7097 14.3502,61.6169 17.4892,64.3334 3.0934,2.6769 19.3832,3.3286 23.8219,0.953 z"
           id="path28" />
        <path
           style="fill:#ff7f27;fill-opacity:1"
           d="m -340.40522,479.73532 c 21.15378,-7.22897 52.8041,-28.25847 75.39963,-50.09798 13.06365,-12.62655 16.05326,-17.75715 13.42223,-23.03447 -1.39756,-2.80322 -2.49186,-3.16646 -9.53928,-3.16646 -7.59654,0 -7.96163,0.15245 -7.98273,3.33333 -0.0342,5.15486 -2.19378,7.93802 -13.9682,18.00154 -21.39684,18.28772 -46.25102,34.36743 -63.03657,40.78226 -4.23146,1.61711 -8.10514,2.52861 -8.60819,2.02556 -2.29842,-2.29842 6.27061,-12.77013 30.63508,-37.43736 14.48333,-14.6633 26.33333,-27.6866 26.33333,-28.94067 0,-3.47583 -5.28993,-6.43133 -11.51117,-6.43133 -3.9179,0 -9.41189,1.85039 -18.40951,6.20037 -12.56286,6.07363 -12.93671,6.16351 -18.28843,4.39729 -5.18253,-1.71039 -5.59177,-1.64456 -7.96048,1.28067 -3.24398,4.00615 -3.18422,9.75318 0.13262,12.75488 2.0401,1.84627 4.13268,2.23542 9.33333,1.73571 3.687,-0.35428 6.70364,-0.33478 6.70364,0.0433 0,0.37811 -6.18067,7.04003 -13.73482,14.80428 -14.02659,14.4167 -20.93184,25.07746 -20.93184,32.31587 0,13.17383 13.16183,17.87471 32.01136,11.43319 z"
           id="path48" />
        <path
           style="fill:#ff7f27;fill-opacity:1"
           d="m -755.4823,579.99711 c 3.0833,-3.28062 3.2324,-4.24944 3.2324,-21 0,-9.65838 -1.1299,-30.31825 -2.5109,-45.9108 l -2.5109,-28.3501 10.14116,-9.82301 c 8.25727,-7.99823 7.80182,-14.29227 4.67622,-19.06248 -2.7141,-4.14231 -10.05738,-0.16538 -14.87438,3.62364 -1.8911,1.48754 -5.5958,7.19009 -8.2326,12.67234 -3.9996,8.31542 -6.4984,11.4267 -15.0748,18.76928 -11.9072,10.19424 -22.6651,16.77513 -25.8067,15.78659 -2.9495,-0.92813 -6.4738,2.82253 -6.4738,6.88968 0,1.81429 1.5167,4.81543 3.3705,6.66921 5.6301,5.63013 11.8441,3.2561 27.7173,-10.5893 5.0338,-4.39075 9.5707,-7.40095 10.1703,-6.74796 1.3018,1.41764 4.174,30.40665 4.4409,44.82056 0.1676,9.05447 -0.1674,10.64208 -2.7541,13.05194 -4.6965,4.37542 -3.6886,18.09597 1.588,21.61929 3.2824,2.1917 9.6988,0.9887 12.9014,-2.41888 z"
           id="path44" />
        <path
           style="fill:#3e5528;fill-opacity:1"
           d="m -305.01969,946.33882 c 1.78715,-3.9037 3.8602,-10.3185 4.60679,-14.2552 1.64405,-8.6691 4.04412,-12.5807 9.42724,-15.3644 2.23986,-1.1582 3.77482,-2.8207 3.411,-3.6944 -0.36381,-0.8736 -2.76273,-7.8884 -5.33094,-15.5884 -2.56821,-7.7 -6.27414,-17.6 -8.23539,-22 -1.96126,-4.4 -6.2256,-15.2 -9.47631,-24 -3.25072,-8.8 -8.71824,-23.13178 -12.15007,-31.84838 l -6.23968,-15.84838 -12.70477,1.15611 c -6.98762,0.63586 -29.01632,1.16762 -48.95266,1.1817 l -36.24791,0.0256 -13.7521,12.68471 c -7.56364,6.97658 -19.45209,17.58464 -26.41875,23.57354 -14.64881,12.5928 -20.37471,21.045 -22.79504,33.6486 l -1.6464,8.5735 4.22744,3.5292 c 2.3251,1.9411 15.17442,9.2926 28.55405,16.3368 53.91272,28.3841 86.56687,40.4653 124.99327,46.244 25.79584,3.8793 24.89832,4.0154 28.73023,-4.3546 z"
           id="path37" />
        <path
           style="fill:#ff7f27;fill-opacity:1"
           d="m -328.70382,1057.7697 c 7.05773,-10.1047 44.06108,-75.80548 58.17605,-103.29368 l 8.02435,-15.6271 -2.69913,-3.6152 c -3.56169,-4.7705 -17.64765,-12.5899 -21.88071,-12.1465 -4.46623,0.4678 -5.26793,2.3663 -20.69888,49.0158 -7.15597,21.6333 -14.0777,41.43328 -15.38162,43.99998 -2.91757,5.7431 -12.05401,14.5207 -25.27261,24.28 -16.62764,12.2763 -20.85076,17.0717 -17.75799,20.1645 0.48889,0.4889 8.54803,0.8889 17.9092,0.8889 h 17.02032 z"
           id="path36" />
        <path
           style="fill:#3e5528;fill-opacity:1"
           d="m -243.92557,877.72062 c 0.35662,-0.577 -2.03936,-8.527 -5.3244,-17.6667 -3.28504,-9.1396 -6.31139,-17.6675 -6.72522,-18.9509 -1.22736,-3.8061 -3.48911,-2.6745 -2.66484,1.3334 0.41476,2.0166 1.76014,10.2666 2.98975,18.3333 2.26071,14.8312 3.79991,18 8.74317,18 1.28323,0 2.62492,-0.4721 2.98154,-1.0491 z"
           id="path32" />
        <path
           style="fill:#3e5528;fill-opacity:1"
           d="m -76.654399,1130.3896 c 2.45108,-2.9534 6.6131,-20.9426 8.85807,-38.2865 1.18652,-9.1667 2.78208,-20.5667 3.5457,-25.3334 2.34979,-14.6678 3.58785,-51.7285 2.36072,-70.66668 -3.94601,-60.8981 -17.45659,-109.3201 -45.944851,-164.6666 -10.58696,-20.56818 -29.20152,-54.13275 -36.60292,-66.00001 -3.43025,-5.5 -7.37879,-11.93146 -8.77454,-14.29212 -8.65768,-14.64296 -20.63001,-34.79279 -27.15803,-45.70788 -4.16657,-6.96667 -11.06316,-18.66667 -15.32575,-26 -8.18717,-14.08515 -24.74606,-41.79624 -40.23535,-67.33334 -5.11516,-8.43333 -20.36691,-34.49178 -33.89277,-57.90767 -17.24953,-29.86228 -26.53201,-44.5604 -31.08824,-49.22593 -7.46125,-7.64023 -10.16106,-13.20375 -10.67159,-21.99108 -0.38316,-6.59493 -0.9145,-6.98587 -6.16597,-4.53672 -1.83334,0.85502 -7.53333,3.28215 -12.66667,5.39363 -5.13333,2.11148 -9.50086,4.69812 -9.70563,5.74809 -0.33443,1.71485 9.93076,20.09747 21.13781,37.85302 18.78123,29.75547 51.90115,86.13412 51.90115,88.34913 0,1.29638 -3.29405,2.29723 -20.12882,6.1158 -12.66668,2.87314 -18.53784,5.58751 -18.53784,8.57049 0,5.41916 10.4053,27.99805 18.57096,40.29791 5.36301,8.07825 5.98864,9.37555 13.82455,28.66667 3.60793,8.88232 5.71482,16.44904 6.31136,22.66666 1.16643,12.15764 15.24039,50.27325 19.10242,51.7339 0.83822,0.31702 8.72404,-0.48332 17.52404,-1.77853 8.79999,-1.29522 24.44999,-2.78679 34.77778,-3.31461 l 18.77779,-0.95968 2.92481,3.7183 c 1.60865,2.04507 2.71022,4.36682 2.44794,5.15946 -0.28382,0.85775 -5.29121,1.56358 -12.36927,1.74356 -14.38423,0.36576 -55.24718,5.59654 -57.52169,7.36323 -1.26738,0.98442 -1.14917,2.34682 0.53217,6.13329 1.36102,3.06509 2.24003,9.06479 2.37359,16.20108 0.17611,9.40997 0.81621,12.50392 3.77173,18.23093 1.95779,3.79368 6.88439,16.69232 10.948,28.66362 6.95454,20.488 7.73354,22.0611 13.26642,26.7905 5.98164,5.113 9.54118,12.344 8.18492,16.6273 -1.59553,5.0391 -6.07254,31.9343 -6.05155,36.3543 0.0122,2.5666 0.90307,5.8313 1.97975,7.2548 1.07668,1.4235 1.95759,3.5588 1.95759,4.7452 0,1.1863 0.76606,3.2046 1.70235,4.4851 1.59743,2.1846 2.53847,2.203 15.26974,0.2994 18.7865,-2.809 31.91101,-6.3006 59.02791,-15.7039 12.83333,-4.4501 27.0915,-9.24656 28.524939,-9.33536 6.052601,-0.3748 10.504092,48.21686 10.622482,90.25474 0.1061,37.6746 -3.80647,70.7313 -11.878801,100.3621 -1.85611,6.8131 -3.01545,12.9689 -2.57633,13.6794 1.243,2.0112 25.362631,1.6355 27.069921,-0.4216 z"
           id="path29" />
        <path
           style="fill:#ff7f27;fill-opacity:1"
           d="m -656.73678,1240.2555 c 0.2498,-45.5425 0.64444,-64.7507 -0.44376,-66.062 -1.1187,-1.3479 -6.29104,-0.7571 -17.91044,-0.7571 -15.1349,0 -15.96711,-0.6494 -16.74301,2.2461 -1.0634,3.968 -0.63835,124.4265 -0.58183,127.3919 0.0301,1.5796 -0.98209,1.1641 18.49034,0.734 l 16.8425,-0.372 z"
           id="path26" />
        <path
           style="fill:#ff7f27;fill-opacity:1"
           d="m -468.5967,1303.6534 c 1.00957,-1.2164 1.591,-17.2092 1.82993,-50.3333 l 0.35019,-48.5504 12.39532,-0.6883 c 8.93103,-0.4959 12.74492,-1.2412 13.64624,-2.6666 1.86344,-2.9471 1.61208,-24.4581 -0.30824,-26.3784 -1.17832,-1.1783 -12.93771,-1.6 -44.61974,-1.6 -41.16776,0 -43.07917,0.111 -44.39999,2.579 -1.94815,3.6401 -1.77515,24.4928 0.21975,26.4877 1.01505,1.015 6.13333,1.6 14,1.6 h 12.4 v 48.5034 c 0,37.8726 -0.14652,50.6938 1.19086,51.8038 1.60584,1.3327 8.79744,0.1773 24.97921,0.774 4.35211,0.1605 7.37451,-0.3959 8.31647,-1.5309 z"
           id="path23" />
        <path
           style="fill:#ff7f27;fill-opacity:1"
           d="m -294.97897,1305.4517 c 3.35736,-0.8524 7.8329,-2.9282 9.94564,-4.6129 3.82478,-3.0497 3.84332,-3.1371 4.29403,-20.2327 0.57144,-21.6747 0.0927,-22.506 -9.25333,-16.0691 -9.41657,6.4854 -19.43255,8.6598 -29.50576,6.4056 -19.5166,-4.3677 -30.4915,-27.6821 -21.73512,-46.1729 10.13562,-21.4033 34.67427,-25.7804 54.54773,-9.73 5.63736,4.5529 6.46717,1.9422 5.95708,-18.7417 -0.51156,-20.7432 -0.14033,-20.1519 -14.84564,-23.645 -25.53909,-6.0666 -49.47675,0.153 -65.59258,17.0424 -22.30179,23.3723 -26.7952,55.2236 -11.61905,82.3611 7.01914,12.5514 14.89638,20.3164 26.99593,26.6113 17.60117,9.1571 33.24024,11.2451 50.81107,6.7839 z"
           id="path17" />
        <g
           id="g59">
          <path
             style="fill:#aa8964;fill-opacity:1"
             d="m -359.08325,430.79001 c 1.74464,-1.1098 1.75701,-1.66046 0.0969,-4.31292 -7.31207,-11.68263 -7.08098,-18.3373 0.92834,-26.73265 l 3.5222,-3.69197 -4.40646,-8.9747 c -2.42355,-4.93608 -8.1485,-15.2747 -12.72211,-22.9747 -4.57361,-7.7 -11.81433,-20.3 -16.09048,-28 -11.35892,-20.4538 -16.79891,-27.06506 -28.03012,-34.06516 -13.31139,-8.29663 -23.04089,-11.55759 -36.63155,-12.27752 -18.59972,-0.98527 -36.40789,5.80097 -50.97223,19.4242 -9.77531,9.14366 -36.94991,54.77637 -61.28869,102.91848 -6.3361,12.53282 -6.4131,13.84355 -0.73907,12.58097 6.72291,-1.49597 15.86769,-0.75595 19.41986,1.57153 2.70041,1.76937 3.50433,1.81993 4.96956,0.31251 0.9614,-0.98909 8.59523,-14.69834 16.96407,-30.46501 15.04607,-28.34639 19.87906,-36.70606 32.25577,-55.79312 10.05994,-15.51418 27.22944,-24.60013 42.23429,-22.35002 12.93232,1.93933 27.841,13.70024 35.16665,27.74171 2.79333,5.35412 10.38377,18.56312 16.86762,29.35333 6.48386,10.79021 10.25758,17.23167 10.25758,17.63728 0,0.4056 4.23125,7.90402 7.53125,13.34023 3.3,5.43621 6,10.21434 6,10.61808 0,0.40374 2.11844,4.04572 4.70764,8.09329 4.74797,7.42227 6.30741,8.36901 9.95903,6.04616 z"
             id="path49" />
          <path
             style="fill:#aa8964;fill-opacity:1"
             d="m -506.99181,772.26199 c 1.04971,-2.1126 11.50857,-12.8689 23.2419,-23.90288 11.73333,-11.03399 29.43333,-28.29404 39.33332,-38.35566 9.9,-10.06162 23.55,-23.76482 30.33333,-30.45154 11.86811,-11.69906 14.41732,-15.44884 10.50261,-15.44884 -2.43738,0 -32.96225,15.38348 -48.83593,24.61162 -40.65046,23.63209 -80.06854,40.13035 -114.60287,47.96653 -10.59825,2.40485 -19.45974,4.94305 -19.6922,5.64044 -0.94992,2.84976 67.67193,33.39162 75.71984,33.70101 1.15029,0.0442 2.95029,-1.64809 4,-3.76068 z"
             id="path39" />
          <path
             style="fill:#aa8964;fill-opacity:1"
             d="m -351.15386,794.63388 c 8.47217,-0.80805 15.96714,-2.00125 16.6555,-2.65155 1.3647,-1.28926 -2.17523,-11.96719 -11.23158,-33.87926 -5.84623,-14.14511 -8.68496,-19.33333 -10.5782,-19.33333 -2.48522,0 -56.10845,51.77259 -56.10845,54.17204 0,0.91245 1.95,1.901 4.33334,2.19677 9.46705,1.17485 42.37927,0.88309 56.92939,-0.50467 z"
             id="path38" />
          <path
             style="fill:#aa8964;fill-opacity:1"
             d="m -76.643347,1130.4006 c 2.45108,-2.9534 6.6131,-20.9426 8.85807,-38.2865 1.18652,-9.1667 2.78208,-20.5667 3.5457,-25.3334 2.34979,-14.6678 3.58785,-51.7285 2.36072,-70.66659 -3.94601,-60.89814 -17.45659,-109.32014 -45.944853,-164.66664 -10.58696,-20.56818 -29.20152,-54.13275 -36.60292,-66.00001 -3.43025,-5.5 -7.37879,-11.93146 -8.77454,-14.29212 -8.65768,-14.64296 -20.63001,-34.79279 -27.15803,-45.70788 -4.16657,-6.96667 -11.06316,-18.66667 -15.32575,-26 -8.18717,-14.08515 -24.74606,-41.79624 -40.23535,-67.33334 -5.11516,-8.43333 -20.36691,-34.49178 -33.89277,-57.90767 -17.24953,-29.86228 -26.53201,-44.5604 -31.08824,-49.22593 -7.46125,-7.64023 -10.16106,-13.20375 -10.67159,-21.99108 -0.38316,-6.59493 -0.9145,-6.98587 -6.16597,-4.53672 -1.83334,0.85502 -7.53333,3.28215 -12.66667,5.39363 -5.13333,2.11148 -9.50086,4.69812 -9.70563,5.74809 -0.33443,1.71485 9.93076,20.09747 21.13781,37.85302 18.78123,29.75547 51.85818,86.12631 51.85818,88.34132 0,1.29638 -3.23936,2.26598 -20.07413,6.08455 -12.66668,2.87314 -18.5769,5.59532 -18.5769,8.5783 0,5.41916 10.42483,28.03711 18.59049,40.33697 5.36301,8.07825 5.99645,9.36774 13.83236,28.65886 3.60793,8.88232 5.67576,16.44123 6.2723,22.65885 1.16643,12.15764 15.25992,50.28887 19.12195,51.74952 0.83822,0.31702 8.85026,-0.44961 17.65026,-1.74482 8.79999,-1.29522 24.3433,-2.82831 34.67109,-3.35613 l 18.77779,-0.95968 4.24317,7.09965 c 0.88369,1.47858 0.53532,0.93604 1.12958,1.77811 67.2663,95.31718 82.635523,185.31174 82.219083,240.10774 -0.286313,37.6737 -3.80647,70.7313 -11.878803,100.3621 -1.85611,6.8131 -3.01545,12.9689 -2.57633,13.6794 1.243,2.0112 25.362633,1.6355 27.069923,-0.4216 z"
             id="path29-1" />
          <path
             style="fill:#aa8964;fill-opacity:1"
             d="m -802.31907,1152.5213 c 3.4568,-1.85 3.35799,-3.7629 -1.92291,-19.5551 -10.0113,-29.9385 -15.3924,-65.98 -16.3628,-109.5949 -0.8174,-36.74222 0.8009,-56.51932 7.0706,-86.40832 8.058,-38.4142 40.76328,-108.39356 63.91838,-146.98296 l 24.10422,-41.81441 24.43297,-39.58218 c 34.77337,-56.33394 -26.44068,24.49051 -3.26258,2.59101 2.2106,-1.8195 5.37393,-2.17492 17.77153,-0.54462 7.6833,1.0104 16.74959,2.7454 20.06629,3.8016 3.3167,1.0562 31.77737,8.6215 36.04947,9.4657 4.272,0.8442 -8.82509,-2.7263 -2.09709,-0.5613 16.2428,5.2268 33.80718,6.3746 47.74608,3.2143 19.2564,-4.366 52.7545,-14.0302 63.9746,-18.4968 16.7239,-6.65767 52.27536,-24.67485 57.43968,-29.01919 l 4.48517,-3.77302 -10.13222,-3.1289 c -13.77407,-4.25353 -41.1792,-13.2308 -63.0226,-21.3083 -32.2457,-11.9243 -76.6418,-21.4526 -99.9559,-21.4526 -10.7259,0 -20.72394,-1.64577 -20.72394,-3.05227 0,-0.5828 1.19174,-2.37943 2.69594,-4.81363 1.5043,-2.4341 9.5607,-15.5883 17.6739,-29.1549 8.1132,-13.5667 19.4642,-32.8667 24.766,-41.6667 23.759,-39.4356 30.66349,-51.96531 30.66349,-53.90101 0,-1.8239 -4.93399,-4.74479 -8.02999,-4.74479 -0.6058,0 -3.9417,2.3471 -7.4133,5.2158 -5.9567,4.9224 -12.7859,8.191 -20.8707,9.9893 -2.9764,0.662 -5.5744,4.4478 -15.8709,23.1266 -6.7716,12.2842 -17.4701,30.5515 -23.7744,40.5941 -6.3043,10.0425 -17.5568,28.6425 -25.0056,41.3333 -21.2392,36.1865 -33.768,57.6038 -45.0869,77.0742 -5.7553,9.9 -13.7636,23.39997 -17.7962,29.99997 -4.0326,6.6 -10.1329,16.8 -13.5562,22.6667 -3.4233,5.8666 -9.6942,16.3078 -13.9353,23.2025 -14.3727,23.3655 -35.1989,61.8937 -44.3953,82.1308 -14.6535,32.246 -25.0298,66.5885 -31.8401,105.3819 -6.3968,36.4373 -6.08339,94.66732 0.84131,134.30502 4.3169,24.7097 14.3944,61.7936 17.5334,64.5101 3.0934,2.6769 19.3832,3.3286 23.8219,0.953 z"
             id="path58" />
          <path
             style="fill:#aa8964;fill-opacity:1"
             d="m -408.41658,1414.7504 c 18.53244,-2.197 55.43851,-10.1385 75.33333,-16.2102 25.77048,-7.8649 62.1853,-24.8919 90.56244,-42.3457 14.28442,-8.7858 37.43754,-26.8723 37.43754,-29.245 0,-1.6538 -2.46524,-2.4811 -11.01294,-3.696 -6.05713,-0.8609 -12.87605,-2.2148 -15.15316,-3.0086 -2.27711,-0.7938 -4.82129,-1.0587 -5.65372,-0.5886 -0.83243,0.47 -9.45011,5.8844 -19.15041,12.0319 -43.67102,27.6763 -97.44625,47.3941 -149.02975,54.645 -24.56338,3.4528 -81.7571,3.458 -102.66666,0.01 -32.25615,-5.3201 -71.35286,-15.9626 -89.70355,-24.4182 -5.66304,-2.6094 -12.65544,-5.5986 -15.53865,-6.6425 -7.42829,-2.6897 -29.76528,-15.1242 -45.34057,-25.2402 l -13.2493,-8.6053 h -19.672 c -10.81952,0 -20.00312,0.5358 -20.40782,1.1908 -1.3114,2.1218 31.62362,26.8859 51.91192,39.0329 46.56307,27.8784 105.79508,47.8274 157.3333,52.9889 8.06667,0.8079 17.54479,1.733 19.82292,1.8336 7.38043,0.3258 61.31783,-0.2077 74.17708,-1.7322 z"
             id="path14" />
        </g>
        <ellipse
           style="fill:#ff7f27;fill-opacity:1;stroke-width:1.07562"
           id="path50"
           cx="-101.11489"
           cy="1288.6217"
           rx="20.334929"
           ry="20.693779" />
        <path
           style="fill:#d55313;fill-opacity:1"
           d="M -167.37679,774.98847 Z"
           id="path52" />
        <path
           style="fill:#d55313;fill-opacity:1"
           d="m -704.40211,718.3429 -50.31646,82.9114 z"
           id="path53" />
        <path
           style="fill:#c2a37a;fill-opacity:1"
           d="m -753.7423,801.36822 50.1875,-85.3125 z"
           id="path55" />
        <path
           id="path50-8"
           style="fill:#ff7f27;fill-opacity:1;stroke-width:1.82829"
           d="m -164.54074,1238.1099 a 34.688995,35.047848 0 0 1 -34.689,35.0478 34.688995,35.047848 0 0 1 -34.68899,-35.0478 34.688995,35.047848 0 0 1 34.68899,-35.0479 34.688995,35.047848 0 0 1 34.689,35.0479 z m -17.87587,67.9786 c 18.33409,-3.8664 33.94522,-14.8365 44.99129,-31.6159 7.6503,-11.621 11.4164,-19.3098 11.30828,-36.8443 -0.112,-18.1666 -4.80179,-27.2912 -15.36535,-41.3157 -25.22942,-33.4953 -85.56631,-35.1717 -111.81347,-3.1065 -17.26566,21.0928 -21.7503,46.2372 -12.5388,70.3025 12.81882,33.4896 46.06132,50.4579 83.41805,42.5799 z" />
        <path
           id="path21"
           style="fill:#ff7f27;fill-opacity:1"
           d="m -599.64565,1228.4315 c -0.90602,-2.8546 -0.77848,-17.5987 0.2031,-23.4787 0.63256,-3.7891 0.69564,-3.8126 8.69939,-3.2337 10.13351,0.733 14.32659,4.6827 14.32659,13.495 0,9.4747 -3.98841,13.2837 -15.54252,14.8435 -6.06018,0.8181 -6.97203,0.6252 -7.68656,-1.6261 z m -0.81128,75.3922 c 1.43604,-1.3673 0.86891,-3.4357 1.17242,-26.054 0.1107,-8.25 0.65128,-14.9959 1.20128,-14.991 0.55,0 7.1579,9.3049 14.68422,20.6667 l 13.68423,20.6577 h 20.02428 c 16.72642,0 20.15295,-0.3353 20.80554,-2.036 0.92101,-2.4001 -1.41094,-5.8462 -20.72744,-30.6307 -8.00161,-10.2667 -14.26523,-19.1253 -13.91915,-19.6857 0.34608,-0.5605 2.9726,-2.2146 5.8367,-3.6757 9.02314,-4.6033 14.24631,-11.022 17.38925,-21.3694 6.46727,-21.2921 -3.00492,-42.6625 -22.18917,-50.0615 -5.83578,-2.2508 -10.32039,-2.541 -39.25513,-2.541 h -32.66667 l -0.34939,64 c -0.29284,53.6397 -0.0469,64.2221 1.51917,65.3724 2.301,1.6901 30.89072,2.1564 32.78986,0.3482 z" />
        <path
           id="path24"
           style="fill:#ff7f27;fill-opacity:1"
           d="m -786.4276,1270.5551 c -0.388,-1.011 -0.5442,-16.2262 -0.3472,-33.8117 l 0.3582,-31.9737 5.3333,-0.4519 c 15.4548,-1.3094 27.0752,5.9474 32.7503,20.4519 6.5953,16.8562 1.9339,34.4201 -11.3075,42.6066 -5.3562,3.3115 -8.2581,4.1168 -16.2991,4.5228 -7.4304,0.3752 -9.9523,0.052 -10.488,-1.344 z m 26.1566,32.187 c 18.2694,-3.4647 38.814,-19.058 46.4507,-35.2561 15.97562,-33.8853 1.0386,-75.0037 -32.1783,-88.5801 -10.862,-4.4396 -11.53201,-6.2314 -37.66291,-7.2741 -14.6667,-0.5853 -31.17704,-0.5258 -33.98408,-0.505 -3.44055,0.025 -2.78921,-0.073 -3.56441,1.1814 -1.6161,2.6148 -1.796,128.0753 -0.1866,130.1282 1.6451,2.0986 50.3865,2.3423 61.1256,0.3057 z" />
        <path
           id="path45"
           style="fill:#ff7f27;fill-opacity:1"
           d="m -449.74991,460.36412 c 0,-4.71518 17.70024,-24.26105 21.9702,-24.26105 4.46873,0 0.0368,7.15016 -10.59886,17.09926 -8.26165,7.72837 -11.37134,9.68689 -11.37134,7.16179 z m -21.33333,-35.61126 c 0,-2.68084 10.92203,-23.04447 14.67865,-27.36767 l 4.01056,-4.61545 -1.64438,4 c -2.00586,4.87932 -14.04192,26.17552 -15.7872,27.93333 -0.72183,0.72702 -1.25763,0.74823 -1.25763,0.0498 z M -718.4166,551.57971 c 3.6667,-1.74018 9.1935,-5.63432 12.2818,-8.65364 3.0884,-3.01931 6.46492,-5.48966 7.50342,-5.48966 3.2715,0 4.6717,-3.07618 7.6128,-16.72557 3.0952,-14.36433 10.0352,-33.9411 12.0323,-33.9411 1.7719,0 1.5331,6.32582 -0.8429,22.32745 -1.1436,7.70165 -1.7624,14.82866 -1.3752,15.83778 1.0007,2.60768 7.9837,2.27447 10.4482,-0.49856 1.1405,-1.28334 3.4015,-6.83334 5.0244,-12.33334 3.4795,-11.79186 10.3143,-29.45269 12.1121,-31.29729 0.7978,-0.81855 0.9365,2.9686 0.3758,10.26217 -0.607,7.89791 -0.377,12.79427 0.7262,15.45768 3.6857,8.89811 16.75337,9.09993 24.64424,0.38062 1.9941,-2.20346 4.13286,-2.80944 9.99686,-2.83246 9.32873,-0.0366 17.61818,-3.6454 25.04035,-10.90122 l 5.58034,-5.45527 4.62117,2.19289 c 8.32346,3.94974 19.62046,2.00432 30.65355,-5.27877 4.77225,-3.15022 5.30793,-3.23307 8.28643,-1.28148 6.22477,4.07863 11.01283,2.75761 19.0173,-5.24687 4.03333,-4.03333 7.46923,-7.33333 7.63534,-7.33333 0.1661,0 1.01436,1.71979 1.88503,3.82175 3.25569,7.85993 12.00928,8.74748 20.72306,2.10115 l 4.52654,-3.45256 3.88991,2.87594 c 4.63905,3.4298 13.53623,3.83077 20.49402,0.92362 3.29268,-1.37577 5.37389,-1.55986 7.04733,-0.62336 4.06201,2.27322 12.36691,0.19513 19.39296,-4.85258 7.5043,-5.39131 7.99999,-5.56903 7.99999,-2.86831 0,1.05911 1.43632,3.59547 3.19183,5.63636 6.10981,7.10308 20.27005,3.14712 26.50281,-7.40411 2.78557,-4.7156 2.88432,-6.85646 0.46864,-10.16009 -1.74747,-2.38982 -2.14533,-2.24023 -8.18772,3.07849 -3.49305,3.0747 -6.86652,5.59037 -7.49661,5.59037 -3.16555,0 -0.63097,-10.11995 5.7038,-22.77387 8.00987,-15.99995 7.78363,-17.75596 -2.33704,-18.13977 -3.58181,-0.13583 -8.78983,-0.65468 -11.57339,-1.153 -13.91712,-2.49145 -40.93897,22.06066 -40.93897,37.19724 0,5.42066 -7.84734,7.541 -10.97958,2.96665 -2.39156,-3.49264 -0.50533,-8.43014 7.35108,-19.24258 11.8265,-16.27631 18.4246,-26.87215 26.2002,-42.07475 9.13097,-17.85255 8.98351,-25.83419 -0.52134,-28.21976 -13.5991,-3.41315 -40.6967,39.24882 -46.23658,72.79405 -1.21998,7.38726 -2.46809,10.37573 -6.11068,14.63127 -2.51766,2.94132 -5.21475,5.34785 -5.99353,5.34785 -2.61596,0 -0.0899,-13.78237 4.88885,-26.67403 5.86482,-15.18594 5.81584,-18.07285 -0.30186,-17.79204 -6.14582,0.28211 -7.77909,2.07245 -14.35263,15.73288 -6.37583,13.24958 -18.26278,29.49883 -18.97153,25.93376 -0.23321,-1.17302 1.4026,-7.83508 3.63513,-14.80457 5.05568,-15.78281 5.16668,-19.28187 0.67655,-21.32771 -4.8672,-2.21765 -6.10021,-0.42996 -13.35755,19.36646 -3.44815,9.40578 -7.71976,18.82512 -9.49248,20.93188 -3.24031,3.85089 -14.06021,9.70658 -20.63067,11.16523 -8.38448,1.86137 -12.23445,-7.85596 -7.13095,-17.99858 2.28549,-4.54215 13.71162,-17.19995 15.52631,-17.19995 0.5311,0 1.15366,1.95 1.38345,4.33334 0.58573,6.07488 4.90882,6.51162 9.57411,0.96723 6.87456,-8.16994 3.53729,-18.6339 -5.94289,-18.6339 -14.95639,0 -35.82096,21.55093 -35.86704,37.04691 -0.0279,9.36316 -13.92313,24.28642 -22.61348,24.28642 -4.75172,0 -3.06177,-4.09768 5.26712,-12.77135 4.4,-4.58214 8,-8.90963 8,-9.61665 0,-2.44719 -4.28226,-4.82437 -8.15857,-4.52901 -3.5923,0.27372 -3.76321,0.0889 -2.21312,-2.39318 1.79674,-2.87703 2.43153,-3.09744 7.90456,-2.74464 6.64534,0.42838 13.3823,-12.49666 8.86713,-17.01183 -5.79052,-5.79052 -25.11271,5.42251 -31.74452,18.42193 -2.85033,5.5871 -3.42444,12.0499 -1.40553,15.82225 0.89867,1.67919 0.30223,4.37118 -2.12234,9.57902 -5.12584,11.01004 -5.25794,11.21286 -7.60385,11.67456 -2.83573,0.5581 -2.89309,-5.42605 -0.20863,-21.76443 3.23749,-19.70427 2.18929,-24.66667 -5.2103,-24.66667 -4.51801,0 -13.65861,7.23155 -16.71621,13.225 -3.5513,6.96109 -4.9767,7.6268 -8.7469,4.08496 -4.0772,-3.83037 -8.9712,-2.74736 -14.6119,3.23352 -3.2544,3.45071 -4.57,4.07308 -6.3013,2.98102 -3.1342,-1.977 -8.4636,0.78432 -11.00722,5.70317 -1.1405,2.20548 -2.8979,11.08709 -3.9054,19.73693 -2.6495,22.74818 -11.9117,41.26252 -20.0587,40.09568 -3.6621,-0.5245 -3.279,-3.53767 1.4194,-11.16362 6.919,-11.23011 7.0612,-11.58373 5.6902,-14.14555 -1.4643,-2.73605 -6.537,-3.21422 -8.9113,-0.83999 -2.6476,2.64764 -3.4582,0.0547 -1.1054,-3.53617 1.2162,-1.85622 3.4248,-3.37495 4.9079,-3.37495 6.2977,0 11.1388,-9.50548 8.4327,-16.55761 -1.6495,-4.29844 -9.3908,-2.59406 -16.035,3.53037 -12.7015,11.7078 -17.4597,26.71018 -11.0543,34.85337 2.4016,3.05309 2.5703,4.11847 1.2743,8.04556 -1.913,5.79641 -0.6315,10.80473 3.6206,14.1494 4.4409,3.49324 10.189,3.32257 18.337,-0.54445 z" />
        <path
           id="path40"
           style="fill:#ff7f27;fill-opacity:1"
           d="m -175.74994,483.43964 c 6.59049,-5.67247 23.15322,-15.6199 24.97188,-14.9979 1.8405,0.62948 -13.28327,10.86186 -22.97188,15.54224 l -6,2.89848 z m -111.82021,-1.32426 c 1.02963,-2.68317 12.12675,-10.70966 19.31798,-13.97259 5.93864,-2.69458 13.16891,-3.58611 13.16891,-1.62379 0,1.87352 -7.66431,6.851 -18.96094,12.31392 -11.75195,5.68312 -14.72393,6.40435 -13.52595,3.28246 z m 80.48688,-13.9571 c 6.22868,-5.53874 23.85484,-17.39772 25.7915,-17.35267 2.10365,0.0489 -5.89143,6.7115 -16.84062,14.03385 -11.00954,7.36272 -15.27854,8.94558 -8.95088,3.31882 z m 52.29862,122.79255 c 5.33575,-2.1004 12.70137,-4.4815 16.36804,-5.29133 38.2399,-8.44573 41.658321,-9.86713 37.47825,-15.58372 -1.66581,-2.27813 -2.18368,-2.28717 -10.55569,-0.18418 -9.77439,2.45524 -16.85752,2.92409 -14.8559,0.98333 0.69667,-0.67549 9.36667,-5.54497 19.26667,-10.82107 9.900001,-5.2761 19.144471,-10.68457 20.543261,-12.01882 2.43753,-2.32504 2.44646,-2.57366 0.21484,-5.97954 -2.79734,-4.26928 -3.88273,-4.14796 -22.758101,2.54383 -7.91954,2.80768 -17.12299,5.03945 -22.66667,5.49651 -10.54605,0.8695 -10.8669,1.40423 5.32824,-8.88002 10.63549,-6.75376 14.7014,-11.48508 13.39824,-15.59095 -1.55483,-4.89886 -4.76482,-4.32145 -17.43697,3.1365 -12.70399,7.4767 -24.36627,11.2887 -34.62284,11.31701 -6.53812,0.0181 -14,-4.22227 -14,-7.95571 0,-2.48032 0.86156,-2.68626 11.2381,-2.68626 8.43867,0 11.76002,-0.52193 13.33333,-2.09524 3.00166,-3.00166 2.62224,-4.39558 -1.89633,-6.96678 -5.33249,-3.03434 -5.04168,-4.27132 1.00417,-4.27132 3.5686,0 5.49236,0.76821 6.67797,2.66667 1.24434,1.99251 3.09509,2.66151 7.32073,2.64625 6.438,-0.0232 7.94884,-0.76305 10.16934,-4.97958 3.8461,-7.30343 -7.68025,-13.66667 -24.75576,-13.66667 -12.08266,0 -17.2455,2.50196 -20.54233,9.95497 -1.4707,3.32477 -3.56983,6.04503 -4.66473,6.04503 -1.09489,0 -4.34291,1.2 -7.21782,2.66667 -6.61103,3.3727 -10.93821,3.38324 -13.9692,0.034 -2.06812,-2.28525 -2.16003,-3.16974 -0.69657,-6.70287 1.40089,-3.38205 4.30043,-5.31298 17.14932,-11.4205 29.19299,-13.87645 51.44678,-28.1806 55.47279,-35.65645 3.3322,-6.18752 1.99688,-10.67319 -4.02838,-13.53237 -4.56702,-2.16719 -5.17066,-2.14067 -14.34778,0.63038 -5.2691,1.59101 -13.57048,4.98057 -18.4475,7.53237 -11.07605,5.79528 -33.90895,25.89846 -41.26937,36.33552 -4.63714,6.57548 -6.52282,8.13797 -11.50457,9.53277 -7.43388,2.08136 -12.83573,0.52102 -13.46587,-3.88967 -0.63834,-4.46811 2.68953,-7.43116 17.0172,-15.15169 34.95941,-18.83805 56.06952,-35.63083 56.08495,-44.61475 0.007,-4.13779 -6.05385,-8.43646 -11.8415,-8.39846 -16.19007,0.1063 -50.76382,24.81019 -65.26693,46.63502 -5.61252,8.44594 -13.17733,14.64605 -17.88657,14.65984 -5.50124,0.0161 -0.17426,-9.15788 13.25597,-22.82908 7.74558,-7.88455 8.51704,-9.14068 7.16518,-11.66666 -0.90365,-1.68849 -2.81723,-2.83077 -4.74219,-2.83077 -1.77496,0 -5.43758,-1.5 -8.13915,-3.33333 -15.97208,-10.83895 -51.57372,5.46387 -54.75602,25.07405 -2.38662,14.70704 7.30614,20.66184 23.3428,14.34077 l 6.55865,-2.58517 0.82437,5.15532 c 1.27274,7.95932 6.16673,11.14243 15.81207,10.28436 7.1998,-0.64051 7.75482,-0.47768 9.33333,2.73825 3.11084,6.33776 8.2635,8.90282 18.96994,9.44347 9.05932,0.45748 9.88526,0.74409 10.62379,3.68663 1.07978,4.3022 9.36746,9.47303 16.92845,10.56197 4.7533,0.68457 6.8608,1.81426 9.14278,4.9008 3.46571,4.68761 14.05877,9.82838 22.87274,11.10003 5.45726,0.78736 6.28328,1.34622 6.95518,4.70575 0.89477,4.47383 6.58083,7.9271 13.05254,7.9271 6.27329,0 3.4678,1.78809 -9.46332,6.03147 -13.34831,4.38029 -21.73713,11.04904 -21.73713,17.28007 0,8.20934 9.35048,9.55172 24.63196,3.53622 z" />
        <path
           id="path30"
           style="fill:#ff7f27;fill-opacity:1"
           d="m -515.70292,992.17902 c -0.42738,-0.6915 0.39829,-7.1415 1.83482,-14.3333 1.43653,-7.1918 3.63088,-19.076 4.87634,-26.4094 1.24546,-7.3333 2.85785,-14.0833 3.58309,-15 3.01702,-3.8133 14.78277,-0.5615 17.58667,4.8606 2.68664,5.1954 5.97386,22.346 6.96834,36.3561 1.11782,15.748 1.07509,15.7833 -19.0724,15.7833 -8.24989,0 -15.34948,-0.5657 -15.77686,-1.2573 z m 274.42863,-68.0342 c -7.48089,-4.2906 -12.19702,-10.6251 -13.39171,-17.9871 -0.89605,-5.5217 -0.19119,-5.6694 14.24941,-2.9869 l 8.66666,1.61 0.40454,8.62 c 0.41887,8.9251 -0.40699,14.7114 -2.09661,14.6897 -0.53603,-0.01 -4.06056,-1.7824 -7.83229,-3.9457 z m -4.93899,-38.0333 c -12.74443,-3.1746 -13.6381,-3.892 -14.92543,-11.9812 -1.33351,-8.3794 -8.39402,-44.41577 -10.58542,-54.02725 -1.0868,-4.76666 -3.27674,-15.56666 -4.86653,-24 -5.83575,-30.95666 -5.64457,-32.74666 1.48102,-13.86715 2.39681,6.35044 4.78314,15.1533 5.30296,19.56191 0.97423,8.26249 3.3753,11.63858 8.27735,11.63858 2.77748,0 5.30117,4.44484 8.32745,14.66666 2.42581,8.19365 7.65795,22.89805 15.78989,44.37615 3.21443,8.49 4.94197,14.8255 4.21923,15.4734 -0.67311,0.6035 -6.53234,-0.225 -13.02052,-1.8411 z m -178.20331,-164.0453 c 0,-1.39409 39.61496,-45.42312 45.19434,-50.2301 2.80868,-2.41984 8.89166,-8.76702 13.51773,-14.10483 4.62607,-5.33781 8.85783,-9.23781 9.40391,-8.66667 0.84249,0.88117 1.82642,16.25603 1.36525,21.33333 -0.12791,1.40816 -19.04041,15.96327 -56.1479,43.21155 -11.6466,8.55219 -13.33333,9.622 -13.33333,8.45672 z m -11.92263,391.75938 c 19.38891,-8.6054 24.48251,-36.0976 9.71621,-52.4421 -8.62152,-9.543 -13.53824,-10.5111 -61.64186,-12.137 -23.18344,-0.7836 -42.62565,-1.8654 -43.20493,-2.404 -0.57927,-0.5386 0.11648,-2.4253 1.54611,-4.1927 2.5543,-3.1577 3.06297,-3.225 29.35967,-3.8801 l 26.76034,-0.6666 3.6042,-3.6077 c 4.73316,-4.7376 5.2019,-11.4957 3.21603,-46.36648 -3.06751,-53.8637 -7.43067,-64.0927 -28.34477,-66.4512 l -8.42169,-0.9498 0.3929,-6.6457 c 0.21609,-3.6552 1.56609,-12.8263 2.99999,-20.3802 1.43391,-7.5539 2.60711,-15.1695 2.60711,-16.9237 0,-5.9546 6.91151,-22.0956 11.04025,-25.7831 2.19158,-1.9573 11.25407,-10.488 20.13888,-18.9571 8.88481,-8.46905 19.45419,-18.15477 23.48752,-21.52382 4.03334,-3.36905 25.92177,-23.88983 48.64097,-45.60172 22.7192,-21.7119 41.68561,-39.47617 42.14759,-39.47617 0.87237,0 4.16192,8.33306 25.79094,65.33333 7.09581,18.7 18.69231,48.39998 25.77002,65.99998 7.07771,17.6 15.29449,39.175 18.25952,47.9444 l 5.39096,15.9443 7.24914,4.2178 c 15.24072,8.8677 15.62207,13.1683 3.16887,35.7367 -4.90343,8.8862 -15.00787,26.9568 -22.45431,40.15678 -23.13021,41.002 -31.29703,56.0585 -31.29703,57.7001 0,2.8799 6.66598,3.3409 38.48986,2.6619 29.9695,-0.6394 32.03166,-0.8513 42.1768,-4.3324 22.89107,-7.8548 34.55839,-23.2907 36.22335,-47.9236 0.84617,-12.51898 -1.26952,-19.60478 -10.34784,-34.65688 l -5.44424,-9.0267 2.61775,-2.8779 c 6.33047,-6.9595 7.23901,-13.4595 2.73322,-19.5539 l -2.88442,-3.9014 2.34868,-13.0446 c 1.29178,-7.1745 3.23227,-16.7644 4.3122,-21.3107 2.34988,-9.8928 0.50434,-15.5464 -6.4078,-19.6296 -4.98652,-2.9456 -8.72759,-10.7806 -18.51228,-38.771 -3.84531,-11 -8.47423,-22.95264 -10.28648,-26.56148 -3.0296,-6.03303 -3.15508,-6.98551 -1.5578,-11.82532 2.00105,-6.06323 2.55644,-4.2378 -11.44392,-37.61315 -11.33628,-27.02444 -18.00228,-44.67332 -18.01059,-47.68475 -0.004,-1.29329 0.67095,-3.43618 1.49893,-4.76199 1.22532,-1.96205 0.22137,-5.36979 -5.39579,-18.31524 -3.79567,-8.74757 -8.70181,-18.44274 -10.90254,-21.5448 -3.60311,-5.07881 -12.39245,-22.68807 -19.57311,-39.21434 -2.21917,-5.10739 -4.16553,-7.05339 -11.14748,-11.1454 -22.44497,-13.15464 -31.63366,-12.75949 -35.86211,1.54219 -1.81687,6.14511 -2.6052,6.9661 -91.8138,95.6176 -29.70764,29.52211 -50.81058,51.49994 -50.81058,52.9171 0,1.33311 -3.99967,5.91114 -8.88816,10.1734 -32.48305,28.32189 -33.91389,30.86835 -47.80773,85.08288 -10.87026,42.4164 -20.3922,77.8578 -21.32202,79.3623 -1.20588,1.9512 -18.72653,1.6384 -20.29787,-0.3623 -0.71993,-0.9167 -1.6885,-3.6672 -2.15237,-6.1122 -0.46386,-2.4451 -2.08915,-6.1951 -3.61174,-8.3334 l -2.76835,-3.8878 h -33.70255 c -38.38151,0 -37.39711,-0.283 -38.97171,11.205 -1.1104,8.1011 -2.8428,8.795 -21.95822,8.795 -13.6071,0 -14.8626,0.2222 -17.7871,3.1466 -4.1816,4.1816 -5.3744,14.5254 -5.3259,46.18678 0.059,38.8693 -3.3594,36.4456 52.67192,37.341 43.37905,0.6932 46.58848,1.1172 46.58848,6.1556 0,1.3611 -2.15816,1.8443 -8.33333,1.866 -4.58334,0.016 -20.10665,0.8663 -34.49615,1.8895 -29.2337,2.0788 -36.69392,4.1492 -43.69932,12.1279 -11.9153,13.5708 -9.9739,38.2386 3.8078,48.3828 9.82012,7.2282 3.9862,6.9609 140.1317,6.4214 121.99761,-0.4834 126.269,-0.5847 131.99998,-3.1283 z" />
      </g>
      <text
         xml:space="preserve"
         style="font-style:normal;font-variant:normal;font-weight:bold;font-stretch:normal;font-size:36.5969px;font-family:Arial;-inkscape-font-specification:'Arial, Bold';font-variant-ligatures:normal;font-variant-caps:normal;font-variant-numeric:normal;font-variant-east-asian:normal;writing-mode:lr-tb;direction:ltr;fill:#ff7f27;fill-opacity:1;stroke-width:0.42887"
         x="839.3194"
         y="1118.3724"
         id="text50"
         transform="scale(0.99915052,1.0008502)"><tspan
           id="tspan50"
           x="839.3194"
           y="1118.3724"
           style="font-style:normal;font-variant:normal;font-weight:bold;font-stretch:normal;font-size:36.5969px;font-family:Arial;-inkscape-font-specification:'Arial, Bold';font-variant-ligatures:normal;font-variant-caps:normal;font-variant-numeric:normal;font-variant-east-asian:normal;fill:#ff7f27;fill-opacity:1;stroke-width:0.42887">TM</tspan></text>
    </g>
  </g>
</svg>
